<svg id="visual" viewBox="0 0 960 540" width="960" height="540" xmlns="http://www.w3.org/2000/svg" xmlns:xlink="http://www.w3.org/1999/xlink" version="1.1"><rect x="0" y="0" width="960" height="540" fill="#ffffff"></rect><path d="M0 306L32 315.8C64 325.7 128 345.3 192 321.5C256 297.7 320 230.3 384 236.5C448 242.7 512 322.3 576 327C640 331.7 704 261.3 768 202.2C832 143 896 95 928 71L960 47L960 0L928 0C896 0 832 0 768 0C704 0 640 0 576 0C512 0 448 0 384 0C320 0 256 0 192 0C128 0 64 0 32 0L0 0Z" fill="#c0e645" stroke-linecap="round" stroke-linejoin="miter"></path></svg>